<svg xmlns="http://www.w3.org/2000/svg" xmlns:xlink="http://www.w3.org/1999/xlink" version="1.1" width="256" height="256" viewBox="0 0 256 256" xml:space="preserve">
<g style="stroke: none; stroke-width: 0; stroke-dasharray: none; stroke-linecap: butt; stroke-linejoin: miter; stroke-miterlimit: 10; fill: none; fill-rule: nonzero; opacity: 1;" transform="translate(1.4065934065934016 1.4065934065934016) scale(2.81 2.81)">
	<path d="M 61.282 63.895 L 46.392 26.928 c -0.229 -0.567 -0.78 -0.939 -1.392 -0.939 s -1.163 0.372 -1.392 0.939 l -14.89 36.966 c -0.216 0.537 -0.104 1.15 0.287 1.576 c 0.289 0.313 0.691 0.484 1.104 0.484 c 0.148 0 0.297 -0.021 0.442 -0.066 c 9.096 -2.809 18.831 -2.805 28.937 0.012 c 0.551 0.153 1.14 -0.02 1.521 -0.445 S 61.495 64.425 61.282 63.895 z M 57.395 62.273 c -0.029 -0.007 -0.058 -0.011 -0.088 -0.018 c -11.149 -9.669 -12.206 -13.504 -12.298 -30.731 L 57.395 62.273 z" style="stroke: none; stroke-width: 1; stroke-dasharray: none; stroke-linecap: butt; stroke-linejoin: miter; stroke-miterlimit: 10; fill: rgb(0,0,0); fill-rule: nonzero; opacity: 1;" transform=" matrix(1 0 0 1 0 0) " stroke-linecap="round"/>
	<path d="M 50.102 16.477 c -0.461 0 -0.907 -0.213 -1.196 -0.595 l -7.507 -9.916 v 9.01 c 0 0.829 -0.671 1.5 -1.5 1.5 s -1.5 -0.671 -1.5 -1.5 V 1.5 c 0 -0.645 0.412 -1.217 1.022 -1.422 c 0.609 -0.206 1.284 0.002 1.673 0.517 l 7.507 9.916 V 1.5 c 0 -0.829 0.672 -1.5 1.5 -1.5 s 1.5 0.671 1.5 1.5 v 13.477 c 0 0.645 -0.411 1.217 -1.022 1.422 C 50.422 16.451 50.261 16.477 50.102 16.477 z" style="stroke: none; stroke-width: 1; stroke-dasharray: none; stroke-linecap: butt; stroke-linejoin: miter; stroke-miterlimit: 10; fill: rgb(0,0,0); fill-rule: nonzero; opacity: 1;" transform=" matrix(1 0 0 1 0 0) " stroke-linecap="round"/>
	<path d="M 45 90 C 21.978 90 3.248 71.27 3.248 48.247 c 0 -17.954 11.434 -33.858 28.452 -39.576 c 0.786 -0.264 1.636 0.16 1.899 0.944 c 0.264 0.785 -0.159 1.636 -0.944 1.899 C 16.86 16.822 6.248 31.583 6.248 48.247 C 6.248 69.615 23.632 87 45 87 s 38.753 -17.385 38.753 -38.753 c 0 -16.773 -10.702 -31.565 -26.632 -36.808 c -0.787 -0.259 -1.215 -1.107 -0.956 -1.894 c 0.26 -0.787 1.109 -1.215 1.894 -0.956 c 17.163 5.649 28.694 21.586 28.694 39.657 C 86.753 71.27 68.022 90 45 90 z" style="stroke: none; stroke-width: 1; stroke-dasharray: none; stroke-linecap: butt; stroke-linejoin: miter; stroke-miterlimit: 10; fill: rgb(0,0,0); fill-rule: nonzero; opacity: 1;" transform=" matrix(1 0 0 1 0 0) " stroke-linecap="round"/>
</g>
</svg>